<?xml version="1.0" encoding="utf-8"?>
<!-- Generator: Adobe Illustrator 27.5.0, SVG Export Plug-In . SVG Version: 6.00 Build 0)  -->
<svg version="1.1" xmlns="http://www.w3.org/2000/svg" xmlns:xlink="http://www.w3.org/1999/xlink" x="0px" y="0px"
	 viewBox="0 0 500 500" style="enable-background:new 0 0 500 500;" xml:space="preserve">
<g id="Floor">
	<path style="fill:#F5F5F5;" d="M401.89,267.205c-84.435-48.749-220.886-48.748-304.773,0.001
		c-83.892,48.753-83.447,127.79,0.988,176.539c84.441,48.752,220.892,48.751,304.783-0.002
		C486.775,394.994,486.33,315.957,401.89,267.205z"/>
</g>
<g id="Shadows_1_">
	<path style="fill:#E6E6E6;" d="M293.839,264.794l-12.966-7.474c-4.056-2.338-9.05-2.336-13.104,0.006l-71.932,41.687l-6.346-3.653
		l-52.07,30.465l6.011,3.462l-85.148,49.16c-2.913,1.682-2.913,5.886,0,7.568l13.103,7.565c4.059,2.343,9.06,2.341,13.117-0.005
		L169.6,344.36l9.945,5.728c8.108,4.67,18.091,4.665,26.194-0.013l30.59-17.661c3.887-2.244,3.883-7.856-0.006-10.095l-14.339-8.255
		l12.077-7.008l27.435,15.839c2.628,1.517,4.197,4.233,4.197,7.267c0.001,3.034-1.568,5.752-4.195,7.27l-45.612,26.346
		c-8.099,4.678-18.162,4.675-26.261-0.007c-9.352-5.408-20.986-5.432-30.36-0.063l-22.16,12.69
		c-2.971,1.701-4.746,4.759-4.751,8.182c-0.005,3.423,1.764,6.487,4.731,8.195l12.712,7.319l-4.783,2.741
		c-0.705,0.404-1.063,1.103-1.091,1.813c-0.001,0.022-0.008,0.044-0.008,0.066c0,0.011,0,0.022,0,0.034
		c0.004,0.733,0.365,1.464,1.09,1.884l9.788,5.672l-1.331,0.769c-0.33,0.19-0.329,0.667,0.002,0.856l2.167,1.236
		c0.601,0.343,1.338,0.341,1.936-0.005l4.142-2.391l7.929,4.578c0.599,0.346,1.336,0.347,1.936,0.005l0.817-0.451
		c0.331-0.189,0.332-0.665,0.002-0.856l-8.179-4.722l5.509-3.181l8.037,4.64c0.599,0.346,1.336,0.348,1.936,0.005l0.817-0.451
		c0.331-0.189,0.332-0.665,0.002-0.856l-8.288-4.785l4.171-2.408l-3.883-2.215l-4.148,2.395l-6.906-3.988l-0.41,0.231l-2.867-1.655
		c-2.027-1.17-4.523-1.174-6.554-0.011l-1.821,1.043l2.088-3.626l-12.719-7.323c-1.648-0.949-2.631-2.651-2.628-4.552
		c0.002-1.902,0.989-3.602,2.639-4.546l22.16-12.69c8.082-4.628,18.112-4.607,26.176,0.056c9.393,5.431,21.064,5.433,30.459,0.006
		l45.611-26.346c3.942-2.276,6.294-6.352,6.293-10.904c-0.001-4.551-2.354-8.626-6.295-10.902l-25.346-14.633l55.597-32.264
		C296.756,270.678,296.753,266.474,293.839,264.794z"/>
	<path style="fill:#E6E6E6;" d="M374.807,358.049c-16.842-9.724-44.06-9.724-60.793,0c-16.734,9.725-16.645,25.49,0.197,35.214
		c16.843,9.724,44.061,9.724,60.795,0C391.739,383.539,391.65,367.773,374.807,358.049z"/>
	<path style="fill:#E6E6E6;" d="M426.098,327.775c-7.454-4.304-19.501-4.304-26.907,0c-7.406,4.304-7.367,11.282,0.087,15.586
		c7.455,4.304,19.502,4.304,26.908,0C433.593,339.057,433.553,332.079,426.098,327.775z"/>
</g>
<g id="Window">
	<g>
		<g>
			<g style="enable-background:new    ;">
				<g>
					<polygon style="fill:#F0F0F0;" points="306.381,48.955 311.302,46.095 311.014,147.841 306.092,150.701 					"/>
				</g>
				<g>
					<polygon style="fill:#F5F5F5;" points="306.092,150.701 311.014,147.841 452.949,229.788 448.028,232.648 					"/>
				</g>
				<g>
					<path style="fill:#E0E0E0;" d="M300.737,39.181l153.26,88.484l-0.325,114.758l-153.26-88.484L300.737,39.181z M448.028,232.648
						l0.288-101.746L306.381,48.955l-0.288,101.746L448.028,232.648"/>
				</g>
				<g>
					<polygon style="fill:#F5F5F5;" points="300.737,39.181 305.659,36.32 458.918,124.805 453.997,127.665 					"/>
				</g>
				<g>
					<polygon style="fill:#F0F0F0;" points="453.997,127.665 458.918,124.805 458.593,239.563 453.672,242.423 					"/>
				</g>
			</g>
		</g>
		<g>
			<polygon style="fill:#E0E0E0;" points="374.513,88.294 374.225,190.04 379.887,193.309 380.175,91.563 			"/>
			<polygon style="fill:#F0F0F0;" points="380.178,91.562 380.175,91.563 379.887,193.309 384.808,190.449 385.081,94.393 			"/>
			
				<rect x="377.344" y="86.659" transform="matrix(0.5 -0.866 0.866 0.5 110.7905 371.7528)" style="fill:#E0E0E0;" width="0.003" height="6.538"/>
		</g>
		<polygon style="opacity:0.2;" points="380.162,96.131 380.175,91.563 374.513,88.294 374.5,92.862 380.162,96.131 		"/>
		<polygon style="opacity:0.2;" points="380.162,96.131 384.133,93.845 380.178,91.562 380.175,91.563 		"/>
		
			<rect x="377.344" y="86.659" transform="matrix(0.5 -0.866 0.866 0.5 110.7868 371.7493)" style="fill:#E0E0E0;" width="0.003" height="6.538"/>
	</g>
</g>
<g id="Plant">
	<g>
		<g>
			<path style="fill:#37474F;" d="M429.67,305.162l-16.981,0.495l-16.981-0.495c-0.731,11.467,1.508,23.154,4.594,28.863
				l0.012-0.002c0.553,1.253,1.664,2.441,3.361,3.421c5.011,2.893,13.108,2.893,18.086,0c1.726-1.003,2.836-2.224,3.359-3.509
				C428.183,328.196,430.397,316.573,429.67,305.162z"/>
			<g>
				<path style="fill:#455A64;" d="M424.656,298.207c6.653,3.841,6.689,10.069,0.079,13.91c-6.61,3.841-17.361,3.841-24.015,0
					c-6.653-3.841-6.688-10.069-0.078-13.91C407.252,294.366,418.003,294.366,424.656,298.207z"/>
			</g>
			<g>
				<path style="fill:#263238;" d="M422.026,299.736c5.191,2.997,5.218,7.856,0.061,10.852c-5.157,2.997-13.545,2.997-18.736,0
					c-5.19-2.997-5.218-7.855-0.061-10.852C408.447,296.74,416.835,296.74,422.026,299.736z"/>
			</g>
		</g>
		<g>
			<path style="fill:#BA68C8;" d="M411.272,305.642c2.851,2.336,6.67,3.203,9.96,2.265c3.282-0.935,5.956-3.641,6.981-7.058
				c-2.076-0.902-3.71-2.232-5.452-3.783c2.426-0.64,5.243-0.54,7.718,0.272c1.338-2.04,1.68-4.978,0.582-7.36
				c-2.928-1.285-6.291-1.525-9.206-0.637c2.58-2.235,5.86-3.273,9.309-2.934c0.339-8.345-2.236-14.3-2.236-14.3
				c-6.332,0.329-12.47,3.058-14.539,5.021c-0.352,2.532,0.701,6.726,0.701,6.726c-2.892-1.604-2.942-4.349-2.942-4.349
				c-3.962,0.991-5.656,2.969-6.274,4.477c0.291,2.48,2.58,6.627,3.75,7.598c-3.721-1.124-5.23-5.269-5.23-5.269
				C400.736,294.982,401.433,304.798,411.272,305.642z"/>
			<path style="opacity:0.2;" d="M411.272,305.642c2.851,2.336,6.67,3.203,9.96,2.265c3.282-0.935,5.956-3.641,6.981-7.058
				c-2.076-0.902-3.71-2.232-5.452-3.783c2.426-0.64,5.243-0.54,7.718,0.272c1.338-2.04,1.68-4.978,0.582-7.36
				c-2.928-1.285-6.291-1.525-9.206-0.637c2.58-2.235,5.86-3.273,9.309-2.934c0.339-8.345-2.236-14.3-2.236-14.3
				c-6.332,0.329-12.47,3.058-14.539,5.021c-0.352,2.532,0.701,6.726,0.701,6.726c-2.892-1.604-2.942-4.349-2.942-4.349
				c-3.962,0.991-5.656,2.969-6.274,4.477c0.291,2.48,2.58,6.627,3.75,7.598c-3.721-1.124-5.23-5.269-5.23-5.269
				C400.736,294.982,401.433,304.798,411.272,305.642z"/>
			<g>
				<path style="fill:#F5F5F5;" d="M411.05,306.582c-0.009,0-0.019,0-0.029-0.001c-0.201-0.016-0.352-0.191-0.337-0.392
					c0.605-7.995,5.179-21.194,16.085-32.08c0.143-0.142,0.374-0.143,0.517,0.001c0.143,0.143,0.143,0.374,0,0.517
					c-10.764,10.745-15.277,23.747-15.872,31.617C411.4,306.435,411.24,306.582,411.05,306.582z"/>
			</g>
		</g>
		<g>
			<path style="fill:#BA68C8;" d="M414.042,309.92c-2.528,2.063-6.061,2.829-9.217,1.999c-3.156-0.83-5.855-3.235-7.041-6.275
				c1.91-0.797,3.373-1.975,4.922-3.347c-2.335-0.578-4.997-0.499-7.294,0.216c-1.401-1.824-1.914-4.446-1.022-6.565
				c2.701-1.129,5.875-1.322,8.689-0.514c-2.582-2.006-5.757-2.953-9.014-2.674c-0.856-7.463,1.217-12.767,1.217-12.767
				c6.035,0.366,12.009,2.865,14.082,4.633c0.488,2.255-0.244,5.974-0.244,5.974c2.621-1.402,2.499-3.84,2.499-3.84
				c3.78,0.914,5.486,2.682,6.157,4.023c-0.122,2.194-2.012,5.852-3.048,6.706c3.414-0.975,4.572-4.633,4.572-4.633
				C423.232,300.536,423.171,309.185,414.042,309.92z"/>
			<g>
				<path style="fill:#FFFFFF;" d="M414.284,310.793c-0.178,0-0.333-0.13-0.361-0.312c-1.039-6.961-6.097-18.517-16.936-28.172
					c-0.151-0.135-0.163-0.366-0.029-0.516c0.134-0.151,0.364-0.164,0.517-0.03c10.983,9.786,16.115,21.528,17.171,28.611
					c0.03,0.2-0.108,0.386-0.307,0.416C414.321,310.792,414.302,310.793,414.284,310.793z"/>
			</g>
		</g>
	</g>
</g>
<g id="Picture">
	<g>
		<g>
			<polygon style="fill:none;" points="129.001,86.257 91.234,108.062 91.316,136.927 129.083,115.122 			"/>
			<polygon style="fill:#F0F0F0;" points="129.001,86.257 129.083,115.122 132.581,117.155 132.488,84.244 			"/>
			<polygon style="fill:#F5F5F5;" points="91.316,136.927 91.327,140.973 132.581,117.155 129.083,115.122 			"/>
			<path style="fill:#E0E0E0;" d="M136.701,76.952l-49.709,28.7l0.121,42.619l49.709-28.699L136.701,76.952z M91.327,140.973
				l-0.011-4.046l-0.082-28.865l37.767-21.805l3.487-2.013l0.093,32.911L91.327,140.973z"/>
			<polygon style="fill:#F5F5F5;" points="136.701,76.952 133.203,74.92 83.494,103.619 86.993,105.652 			"/>
			<polygon style="fill:#F0F0F0;" points="83.494,103.619 83.615,146.238 87.113,148.271 86.993,105.652 			"/>
		</g>
		<g>
			<g style="enable-background:new    ;">
				<g>
					<polygon style="fill:#E0E0E0;" points="117.001,97.217 127.301,105.326 127.323,113.249 93.066,133.027 93.044,125.104 
						99.572,112.138 105.434,116.689 103.362,123.128 106.37,117.41 					"/>
				</g>
				<g>
					<path style="fill:#E0E0E0;" d="M105.749,101.21c1.612-0.931,2.924-0.183,2.929,1.669c0.005,1.853-1.298,4.11-2.91,5.041
						c-1.612,0.931-2.924,0.183-2.929-1.669C102.833,104.398,104.136,102.141,105.749,101.21z"/>
				</g>
			</g>
		</g>
	</g>
	<g>
		<g>
			<polygon style="fill:none;" points="192.246,50.597 154.479,72.402 154.56,101.267 192.328,79.462 			"/>
			<polygon style="fill:#F0F0F0;" points="192.246,50.597 192.328,79.462 195.826,81.495 195.732,48.584 			"/>
			<polygon style="fill:#F5F5F5;" points="154.56,101.267 154.572,105.313 195.826,81.495 192.328,79.462 			"/>
			<path style="fill:#E0E0E0;" d="M199.946,41.293l-49.709,28.699l0.121,42.619l49.709-28.699L199.946,41.293z M154.572,105.313
				l-0.011-4.046l-0.082-28.865l37.767-21.805l3.487-2.013l0.093,32.911L154.572,105.313z"/>
			<polygon style="fill:#F5F5F5;" points="199.946,41.293 196.448,39.26 146.739,67.96 150.237,69.993 			"/>
			<polygon style="fill:#F0F0F0;" points="146.739,67.96 146.86,110.579 150.358,112.612 150.237,69.993 			"/>
		</g>
		<g>
			<g style="enable-background:new    ;">
				<g>
					<polygon style="fill:#E0E0E0;" points="180.246,61.557 190.546,69.667 190.568,77.589 156.311,97.368 156.289,89.445 
						162.817,76.478 168.679,81.029 166.607,87.469 169.615,81.751 					"/>
				</g>
				<g>
					<path style="fill:#E0E0E0;" d="M168.994,65.55c1.612-0.931,2.924-0.183,2.929,1.67c0.005,1.852-1.298,4.11-2.91,5.04
						c-1.612,0.931-2.924,0.183-2.929-1.669C166.078,68.738,167.381,66.481,168.994,65.55z"/>
				</g>
			</g>
		</g>
	</g>
</g>
<g id="Monitor">
	<g>
		<g>
			<g>
				<path style="fill:#455A64;" d="M149.804,398.227l-12.719-7.323c-2.966-1.708-4.735-4.772-4.731-8.195
					c0.004-3.423,1.78-6.482,4.751-8.182l22.16-12.69c9.374-5.369,21.008-5.344,30.36,0.064c8.099,4.682,18.162,4.685,26.261,0.007
					l45.612-26.346c2.627-1.517,4.196-4.236,4.195-7.27c0-3.035-1.569-5.751-4.197-7.268l-46.162-26.651
					c-3.236-1.868-5.246-5.35-5.246-9.086v-6.083h4.197v6.083c0,2.242,1.206,4.331,3.148,5.451l46.162,26.651
					c3.942,2.276,6.294,6.35,6.295,10.902c0.001,4.551-2.352,8.628-6.293,10.904l-45.611,26.346
					c-9.395,5.427-21.066,5.425-30.459-0.006c-8.064-4.663-18.093-4.684-26.176-0.056l-22.16,12.69
					c-1.65,0.945-2.637,2.645-2.639,4.546c-0.003,1.902,0.98,3.604,2.628,4.552l12.719,7.323L149.804,398.227z"/>
				<path style="opacity:0.3;" d="M214.284,285.288v-6.083h-4.197v6.083c0,1.883,0.513,3.699,1.433,5.279l3.633-2.098
					C214.595,287.518,214.284,286.423,214.284,285.288z"/>
			</g>
			<g>
				<g>
					<path style="fill:#37474F;" d="M144.422,395.429v0.069c0-0.022,0.007-0.044,0.008-0.066L144.422,395.429z"/>
					<path style="fill:#37474F;" d="M155.393,403.141l-9.881-5.726c-0.725-0.42-1.086-1.151-1.09-1.884v6.727l0.004-0.002
						c-0.018,0.754,0.34,1.516,1.086,1.949l9.881,5.726l13.17-7.604l-5.881-3.395L155.393,403.141z"/>
					<path style="fill:#455A64;" d="M145.512,397.415l9.881,5.726l7.289-4.208l5.881-3.395l-9.871-5.699
						c-2.027-1.17-4.523-1.174-6.554-0.011l-6.616,3.791c-0.705,0.404-1.063,1.103-1.091,1.813
						c-0.001,0.022-0.008,0.044-0.008,0.066c0,0.011,0,0.022,0,0.034C144.426,396.264,144.788,396.995,145.512,397.415z"/>
				</g>
				<path style="fill:#455A64;" d="M156.381,413.634v-10.06c0-0.783,0.418-1.506,1.095-1.897l14.164-8.177
					c0.273-0.158,0.582-0.112,0.802,0.055l0.003-0.003l-1.947-1.36l0,0.004c-0.221-0.166-0.529-0.212-0.802-0.054l-14.164,8.177
					c-0.678,0.391-1.095,1.115-1.095,1.897v10.06c0,0.273,0.145,0.494,0.348,0.619l-0.001,0.001l1.918,1.342v-0.004
					C156.514,414.106,156.381,413.895,156.381,413.634z"/>
				<path style="opacity:0.2;fill:#FFFFFF;" d="M156.381,413.634v-10.06c0-0.783,0.418-1.506,1.095-1.897l14.164-8.177
					c0.273-0.158,0.582-0.112,0.802,0.055l0.003-0.003l-1.947-1.36l0,0.004c-0.221-0.166-0.529-0.212-0.802-0.054l-14.164,8.177
					c-0.678,0.391-1.095,1.115-1.095,1.897v10.06c0,0.273,0.145,0.494,0.348,0.619l-0.001,0.001l1.918,1.342v-0.004
					C156.514,414.106,156.381,413.895,156.381,413.634z"/>
				<path style="fill:#455A64;" d="M172.443,393.554c-0.221-0.166-0.529-0.212-0.802-0.055l-14.164,8.177
					c-0.678,0.391-1.095,1.115-1.095,1.897v10.06c0,0.26,0.133,0.471,0.321,0.599c0.219,0.149,0.513,0.184,0.774,0.033l14.164-8.177
					c0.678-0.391,1.095-1.115,1.095-1.897v-10.06C172.736,393.886,172.615,393.684,172.443,393.554z"/>
				<g>
					<path style="fill:#BA68C8;" d="M173.68,412.91c0.005-1.752-1.23-3.891-2.755-4.772l-9.907-5.72l-0.841,0.488l-0.018,6.367
						l9.907,5.72c0.77,0.445,1.467,0.48,1.97,0.181l0,0.003l0.822-0.477c0.003-0.001,0.006-0.003,0.009-0.005l0.029-0.017
						l-0.001-0.006C173.377,414.374,173.678,413.769,173.68,412.91z M171.092,412.671c-0.119-0.026-0.243-0.068-0.374-0.144
						c-0.701-0.405-1.27-1.39-1.268-2.195c0-0.094,0.01-0.181,0.025-0.262c0.122,0.025,0.249,0.065,0.384,0.143
						c0.707,0.408,1.276,1.394,1.274,2.207C171.133,412.516,171.109,412.591,171.092,412.671z"/>
					<path style="opacity:0.5;fill:#FFFFFF;" d="M173.68,412.91c0.005-1.752-1.23-3.891-2.755-4.772l-9.907-5.72l-0.841,0.488
						l-0.018,6.367l9.907,5.72c0.77,0.445,1.467,0.48,1.97,0.181l0,0.003l0.822-0.477c0.003-0.001,0.006-0.003,0.009-0.005
						l0.029-0.017l-0.001-0.006C173.377,414.374,173.678,413.769,173.68,412.91z M171.092,412.671
						c-0.119-0.026-0.243-0.068-0.374-0.144c-0.701-0.405-1.27-1.39-1.268-2.195c0-0.094,0.01-0.181,0.025-0.262
						c0.122,0.025,0.249,0.065,0.384,0.143c0.707,0.408,1.276,1.394,1.274,2.207C171.133,412.516,171.109,412.591,171.092,412.671z"
						/>
					<path style="opacity:0.2;" d="M173.68,412.91c0.005-1.752-1.23-3.891-2.755-4.772l-9.907-5.72l-0.841,0.488l9.907,5.72
						c1.525,0.88,2.76,3.02,2.755,4.772c-0.002,0.871-0.31,1.483-0.803,1.776l0,0.002l0.822-0.477
						c0.003-0.002,0.006-0.003,0.009-0.005l0.029-0.017l-0.001-0.006C173.377,414.374,173.678,413.769,173.68,412.91z"/>
					<g style="opacity:0.2;">
						<path d="M169.45,410.332c0-0.095,0.01-0.183,0.025-0.264c-0.513-0.108-0.89,0.224-0.892,0.88
							c-0.002,0.805,0.567,1.791,1.268,2.195c0.626,0.361,1.145,0.145,1.258-0.468c-0.124-0.026-0.253-0.069-0.39-0.149
							C170.017,412.123,169.448,411.137,169.45,410.332z"/>
					</g>
				</g>
				<g>
					<path style="fill:#BA68C8;" d="M181.394,408.664c0.005-1.752-1.23-3.891-2.755-4.772l-9.907-5.72l-0.841,0.488l-0.018,6.367
						l9.907,5.72c0.77,0.445,1.467,0.479,1.97,0.181l0,0.003l0.822-0.477c0.003-0.002,0.006-0.003,0.009-0.005l0.029-0.017
						l-0.001-0.006C181.091,410.128,181.391,409.523,181.394,408.664z M178.805,408.425c-0.119-0.026-0.243-0.068-0.374-0.144
						c-0.701-0.404-1.27-1.39-1.267-2.195c0-0.094,0.01-0.181,0.025-0.262c0.122,0.025,0.249,0.065,0.384,0.143
						c0.707,0.408,1.276,1.394,1.274,2.207C178.846,408.271,178.823,408.345,178.805,408.425z"/>
					<path style="opacity:0.5;fill:#FFFFFF;" d="M181.394,408.664c0.005-1.752-1.23-3.891-2.755-4.772l-9.907-5.72l-0.841,0.488
						l-0.018,6.367l9.907,5.72c0.77,0.445,1.467,0.479,1.97,0.181l0,0.003l0.822-0.477c0.003-0.002,0.006-0.003,0.009-0.005
						l0.029-0.017l-0.001-0.006C181.091,410.128,181.391,409.523,181.394,408.664z M178.805,408.425
						c-0.119-0.026-0.243-0.068-0.374-0.144c-0.701-0.404-1.27-1.39-1.267-2.195c0-0.094,0.01-0.181,0.025-0.262
						c0.122,0.025,0.249,0.065,0.384,0.143c0.707,0.408,1.276,1.394,1.274,2.207C178.846,408.271,178.823,408.345,178.805,408.425z"
						/>
					<path style="opacity:0.2;" d="M181.394,408.664c0.005-1.752-1.23-3.892-2.755-4.772l-9.907-5.72l-0.841,0.488l9.907,5.72
						c1.525,0.88,2.76,3.02,2.755,4.772c-0.002,0.871-0.31,1.483-0.803,1.776l0,0.003l0.822-0.477
						c0.003-0.002,0.006-0.003,0.009-0.005l0.029-0.017l-0.001-0.006C181.091,410.128,181.391,409.523,181.394,408.664z"/>
					<g style="opacity:0.2;">
						<path d="M177.164,406.086c0-0.095,0.01-0.183,0.025-0.264c-0.514-0.107-0.891,0.224-0.892,0.88
							c-0.002,0.805,0.567,1.791,1.268,2.195c0.626,0.362,1.145,0.145,1.258-0.468c-0.124-0.026-0.253-0.07-0.391-0.149
							C177.731,407.877,177.162,406.891,177.164,406.086z"/>
					</g>
				</g>
			</g>
		</g>
		<g>
			<g>
				<g>
					<path style="fill:#BA68C8;" d="M225.728,324.479l-24.94,14.27c-7.297,4.176-16.263,4.161-23.548-0.037l-18.506-10.665
						c-2.194-1.265-3.548-3.603-3.551-6.135l-0.018-12.624l-3.86,2.231v10.973c0,2.959,1.58,5.692,4.143,7.17l21.972,12.663
						c7.172,4.134,16,4.147,23.185,0.036l25.121-14.374c3.751-2.146,5.274-6.23,4.581-9.963
						C229.831,320.595,228.314,323,225.728,324.479z"/>
					<path style="fill:#BA68C8;" d="M158.735,328.047l18.506,10.665c7.284,4.198,16.25,4.212,23.548,0.037l24.94-14.27
						c2.586-1.479,4.104-3.884,4.581-6.456c-0.466-2.509-1.922-4.861-4.413-6.356l-20.461-12.273
						c-2.493-1.495-4.019-4.189-4.019-7.096v-3.508v-6.24l-46.25,26.736l0.018,12.624
						C155.187,324.444,156.541,326.782,158.735,328.047z"/>
				</g>
				<g>
					<path style="opacity:0.4;" d="M158.735,328.047c-2.194-1.265-3.548-3.603-3.551-6.135l-0.018-12.624l-3.86,2.231v10.973
						c0,2.959,1.58,5.692,4.143,7.17l7.795,4.492v-3.507L158.735,328.047z"/>
					<path style="opacity:0.3;" d="M158.735,328.047l4.509,2.599v0l48.284-27.595l-6.094-3.655
						c-2.493-1.495-4.019-4.189-4.019-7.096v-3.508v-6.24l-46.25,26.736l0.018,12.624
						C155.187,324.444,156.541,326.782,158.735,328.047z"/>
				</g>
			</g>
			<g>
				<path style="fill:#FFA8A7;" d="M76.99,359.472v-0.006c-0.017-0.009-0.036-0.015-0.054-0.025L76.99,359.472z"/>
				<path style="fill:#BA68C8;" d="M74.795,354.862l-0.356-158.174c-0.013-4.489,3.144-9.964,7.057-12.223L278.109,71.241
					c1.942-1.121,3.705-1.235,4.989-0.516l-7.403-4.29l0.001,0.006c-1.296-0.821-3.12-0.753-5.143,0.415L73.939,180.081
					c-3.913,2.259-7.07,7.734-7.057,12.223l0.356,158.174c0.006,2.118,0.722,3.632,1.882,4.413l-0.001,0l0.008,0.005
					c0.127,0.085,0.259,0.161,0.396,0.228l7.301,4.252C75.576,358.628,74.801,357.071,74.795,354.862z"/>
				<path style="opacity:0.3;fill:#FFFFFF;" d="M275.695,66.435l0.001,0.006c-1.296-0.821-3.12-0.753-5.143,0.415L73.939,180.081
					c-2.174,1.256-4.113,3.505-5.407,6.026l7.564,4.372c1.293-2.516,3.229-4.761,5.4-6.014L278.109,71.241
					c1.942-1.121,3.705-1.235,4.989-0.516L275.695,66.435z"/>
				<path style="opacity:0.2;" d="M66.883,192.303l0.356,158.174c0.006,2.118,0.722,3.632,1.882,4.413l-0.001,0l0.008,0.005
					c0.127,0.085,0.259,0.161,0.396,0.228l7.301,4.252c-1.249-0.748-2.024-2.305-2.03-4.514l-0.356-158.174
					c-0.006-1.998,0.619-4.19,1.657-6.209l-7.564-4.372C67.499,188.122,66.877,190.309,66.883,192.303z"/>
				<path style="fill:#FFA8A7;" d="M283.182,70.773l-0.036-0.021c0.012,0.007,0.022,0.016,0.034,0.023L283.182,70.773z"/>
				<path style="fill:#BA68C8;" d="M285.212,75.288c-0.006-2.209-0.783-3.765-2.033-4.513c-0.012-0.007-0.022-0.016-0.034-0.023
					c-0.016-0.009-0.031-0.018-0.047-0.027c-1.284-0.719-3.047-0.606-4.989,0.516L81.496,184.465
					c-3.913,2.259-7.069,7.734-7.057,12.223l0.356,158.174c0.006,2.208,0.781,3.766,2.03,4.514c0.037,0.022,0.073,0.044,0.111,0.065
					c0.017,0.009,0.036,0.016,0.054,0.025c1.276,0.671,3.003,0.544,4.908-0.556l196.613-113.225
					c3.906-2.255,7.069-7.734,7.057-12.223L285.212,75.288z M275.018,239.635L81.771,350.916l-0.344-154.248
					c-0.006-1.987,1.826-5.149,3.563-6.152L278.236,79.234l0.345,154.248C278.587,235.469,276.756,238.631,275.018,239.635z"/>
				<path style="fill:#BA68C8;" d="M278.236,79.234l-5.001,2.885l0.333,148.922c0.006,1.986-1.826,5.149-3.563,6.152L81.759,345.59
					l0.012,5.326l193.247-111.281c1.738-1.003,3.569-4.166,3.564-6.152L278.236,79.234z"/>
				<path style="opacity:0.3;" d="M278.236,79.234l-5.001,2.885l0.333,148.922c0.006,1.986-1.826,5.149-3.563,6.152L81.759,345.59
					l0.012,5.326l193.247-111.281c1.738-1.003,3.569-4.166,3.564-6.152L278.236,79.234z"/>
				<path style="fill:#455A64;" d="M273.568,231.041l-0.333-148.922L84.989,190.516c-1.737,1.003-3.569,4.165-3.563,6.152
					l0.333,148.922l188.246-108.396C271.742,236.19,273.574,233.028,273.568,231.041z"/>
				<g style="opacity:0.2;">
					<polygon style="fill:#FFFFFF;" points="232.318,105.68 166.07,297.041 188.728,283.995 254.976,92.633 					"/>
					<polygon style="fill:#FFFFFF;" points="178.724,136.541 112.475,327.902 125.65,320.316 191.898,128.955 					"/>
					<polygon style="fill:#FFFFFF;" points="120.234,170.221 81.616,281.771 81.759,345.59 88.679,341.605 154.927,150.244 					"/>
					<polygon style="fill:#FFFFFF;" points="273.388,150.397 236.7,256.371 249.016,249.279 273.451,178.697 					"/>
					<polygon style="fill:#FFFFFF;" points="273.235,82.119 268.958,84.582 202.71,275.944 211.518,270.871 273.258,92.532 					"/>
				</g>
			</g>
		</g>
	</g>
</g>
<g id="Sparkles">
	<g>
		<g>
			<path style="fill:#BA68C8;" d="M106.822,222.961l0.977,6.124c0.331,2.083,1.885,2.968,3.862,2.203l5.813-2.257l-5.807,4.455
				c-1.975,1.514-3.518,4.189-3.837,6.648l-0.939,7.229l-0.977-6.124c-0.331-2.083-1.887-2.97-3.864-2.202l-5.813,2.254l5.807-4.453
				c1.975-1.517,3.52-4.19,3.839-6.649L106.822,222.961z"/>
		</g>
		<g>
			<path style="fill:#BA68C8;" d="M110.115,204.318l0.622,3.899c0.211,1.326,1.2,1.89,2.459,1.403l3.701-1.437l-3.697,2.837
				c-1.258,0.964-2.24,2.667-2.443,4.233l-0.598,4.603l-0.622-3.899c-0.211-1.326-1.201-1.891-2.46-1.402l-3.702,1.435l3.698-2.835
				c1.258-0.966,2.242-2.668,2.444-4.234L110.115,204.318z"/>
		</g>
		<g>
			<path style="fill:#BA68C8;" d="M268.518,95.888l0.977,6.124c0.331,2.083,1.885,2.968,3.862,2.203l5.813-2.256l-5.807,4.455
				c-1.975,1.514-3.518,4.189-3.837,6.648l-0.939,7.229l-0.977-6.124c-0.331-2.083-1.887-2.97-3.864-2.202l-5.814,2.254l5.807-4.453
				c1.975-1.517,3.52-4.19,3.839-6.649L268.518,95.888z"/>
		</g>
		<g>
			<path style="fill:#BA68C8;" d="M275.291,77.402l0.622,3.899c0.211,1.326,1.2,1.89,2.459,1.403l3.702-1.437l-3.698,2.836
				c-1.258,0.964-2.24,2.668-2.443,4.233l-0.598,4.603l-0.622-3.899c-0.211-1.326-1.201-1.891-2.46-1.402l-3.702,1.435l3.698-2.835
				c1.258-0.966,2.242-2.668,2.444-4.234L275.291,77.402z"/>
		</g>
		<g>
			<path style="fill:#BA68C8;" d="M231.94,232.274l0.622,3.899c0.211,1.327,1.2,1.89,2.459,1.403l3.702-1.437l-3.698,2.837
				c-1.258,0.964-2.24,2.667-2.443,4.233l-0.598,4.603l-0.622-3.899c-0.211-1.326-1.201-1.891-2.46-1.402l-3.702,1.435l3.698-2.835
				c1.258-0.966,2.242-2.668,2.444-4.233L231.94,232.274z"/>
		</g>
		<g>
			<path style="fill:#BA68C8;" d="M93.551,220.145l0.486,3.05c0.165,1.038,0.939,1.479,1.924,1.097l2.896-1.124l-2.893,2.219
				c-0.984,0.754-1.753,2.087-1.911,3.311l-0.468,3.601l-0.486-3.05c-0.165-1.038-0.94-1.479-1.925-1.097l-2.896,1.123l2.893-2.218
				c0.984-0.755,1.753-2.087,1.912-3.312L93.551,220.145z"/>
		</g>
	</g>
	<g style="opacity:0.8;">
		<g>
			<path style="fill:#FFFFFF;" d="M106.822,222.961l0.977,6.124c0.331,2.083,1.885,2.968,3.862,2.203l5.813-2.257l-5.807,4.455
				c-1.975,1.514-3.518,4.189-3.837,6.648l-0.939,7.229l-0.977-6.124c-0.331-2.083-1.887-2.97-3.864-2.202l-5.813,2.254l5.807-4.453
				c1.975-1.517,3.52-4.19,3.839-6.649L106.822,222.961z"/>
		</g>
		<g>
			<path style="fill:#FFFFFF;" d="M110.115,204.318l0.622,3.899c0.211,1.326,1.2,1.89,2.459,1.403l3.701-1.437l-3.697,2.837
				c-1.258,0.964-2.24,2.667-2.443,4.233l-0.598,4.603l-0.622-3.899c-0.211-1.326-1.201-1.891-2.46-1.402l-3.702,1.435l3.698-2.835
				c1.258-0.966,2.242-2.668,2.444-4.234L110.115,204.318z"/>
		</g>
		<g>
			<path style="fill:#FFFFFF;" d="M268.518,95.888l0.977,6.124c0.331,2.083,1.885,2.968,3.862,2.203l5.813-2.256l-5.807,4.455
				c-1.975,1.514-3.518,4.189-3.837,6.648l-0.939,7.229l-0.977-6.124c-0.331-2.083-1.887-2.97-3.864-2.202l-5.814,2.254l5.807-4.453
				c1.975-1.517,3.52-4.19,3.839-6.649L268.518,95.888z"/>
		</g>
		<g>
			<path style="fill:#FFFFFF;" d="M275.291,77.402l0.622,3.899c0.211,1.326,1.2,1.89,2.459,1.403l3.702-1.437l-3.698,2.836
				c-1.258,0.964-2.24,2.668-2.443,4.233l-0.598,4.603l-0.622-3.899c-0.211-1.326-1.201-1.891-2.46-1.402l-3.702,1.435l3.698-2.835
				c1.258-0.966,2.242-2.668,2.444-4.234L275.291,77.402z"/>
		</g>
		<g>
			<path style="fill:#FFFFFF;" d="M231.94,232.274l0.622,3.899c0.211,1.327,1.2,1.89,2.459,1.403l3.702-1.437l-3.698,2.837
				c-1.258,0.964-2.24,2.667-2.443,4.233l-0.598,4.603l-0.622-3.899c-0.211-1.326-1.201-1.891-2.46-1.402l-3.702,1.435l3.698-2.835
				c1.258-0.966,2.242-2.668,2.444-4.233L231.94,232.274z"/>
		</g>
		<g>
			<path style="fill:#FFFFFF;" d="M93.551,220.145l0.486,3.05c0.165,1.038,0.939,1.479,1.924,1.097l2.896-1.124l-2.893,2.219
				c-0.984,0.754-1.753,2.087-1.911,3.311l-0.468,3.601l-0.486-3.05c-0.165-1.038-0.94-1.479-1.925-1.097l-2.896,1.123l2.893-2.218
				c0.984-0.755,1.753-2.087,1.912-3.312L93.551,220.145z"/>
		</g>
	</g>
</g>
<g id="Character">
	<g>
		<g>
			<path style="fill:#FFA8A7;" d="M292.152,220.974c-4.341-2.663-6.946-10.767-9.301-9.802c-2.354,0.965,1.389,5.248,0.386,5.943
				c-1.003,0.695-4.978-1.794-6.541-3.415c-1.563-1.621-4.226-3.763-6.194,0.81c-1.968,4.573,1.679,8.741,6.946,11.346
				c4.784,2.366,7.851,2.858,11.409,4.532c2.169-2.525,3.689-5.604,4.341-8.868C292.797,221.334,292.443,221.152,292.152,220.974z"
				/>
			<path style="fill:#455A64;" d="M338.384,196.121c-7.101-2.007-12.04,1.467-14.587,7.795l-9.493,23.309
				c0,0-15.503-3.125-21.105-5.706c-0.652,3.264-2.172,6.343-4.341,8.868c0.36,0.169,0.723,0.346,1.094,0.543
				c2.799,1.479,16.311,7.887,24.403,11.411c3.54,1.542,7.66,0.106,9.489-3.295C332.322,223.288,340.805,203.213,338.384,196.121z"
				/>
		</g>
		<g>
			<path style="fill:#37474F;" d="M311.615,370.014c1.72,1.79,4.325,2.548,6.818,2.485c2.493-0.063,4.906-0.863,7.212-1.803
				c2.306-0.94,5.202-3.571,7.695-3.521c2.303,0.046,5.023-0.249,7.294-0.495c0.221-4.989-1.037-9.792-1.037-9.792l-11.641-0.305
				c-3.142,4.267-9.254,7.817-13.878,9.149c-1.485,0.428-2.583,1.623-2.873,3.035c0.005,0.024,0.003,0.048,0.009,0.073
				C311.377,369.577,311.615,370.014,311.615,370.014z"/>
			<path style="fill:#263238;" d="M333.34,367.174c-2.493-0.05-5.388,2.582-7.695,3.521c-2.306,0.94-4.719,1.74-7.212,1.803
				c-2.493,0.063-5.098-0.695-6.818-2.485c0,0-0.238-0.436-0.402-1.175c-0.005-0.024-0.004-0.049-0.009-0.073
				c-0.101,0.494-0.108,1.013,0.009,1.537c0.164,0.739,0.402,1.175,0.402,1.175c1.72,1.79,4.325,2.548,6.818,2.485
				c2.493-0.063,4.906-0.863,7.212-1.803c2.306-0.94,5.202-3.571,7.695-3.522c2.564,0.051,4.778-0.155,7.18-0.411
				c0.058-0.515,0.091-1.032,0.114-1.548C338.363,366.925,335.643,367.22,333.34,367.174z"/>
		</g>
		<g>
			<path style="fill:#263238;" d="M369.207,376.441c-0.01,1.264-0.1,2.523-0.375,3.756c-0.481,2.157-1.602,4.263-3.464,5.477
				c-1.605,1.046-3.586,1.337-5.504,1.452c-1.697,0.102-3.444,0.079-5.035-0.515c-1.208-0.452-2.316-1.29-2.947-2.386
				c0.005,0.021,0.006,0.043,0.011,0.065c0.379,1.643,1.801,2.905,3.392,3.499c1.591,0.595,3.338,0.617,5.035,0.515
				c1.917-0.115,3.899-0.405,5.504-1.452c1.862-1.214,2.982-3.319,3.464-5.477c0.275-1.233,0.365-2.492,0.375-3.756
				c0.014-1.747,0.746-3.396,2.031-4.591c0.313-0.291,0.612-0.592,0.886-0.904c0.396-0.451,0.586-1.042,0.541-1.638
				c-0.018-0.234-0.043-0.462-0.073-0.687c-0.458,0.531-1.539,1.798-1.811,2.051C369.953,373.045,369.221,374.694,369.207,376.441z"
				/>
			<path style="fill:#37474F;" d="M359.652,363.357c0.482,2.549,0.014,5.211-0.972,7.613c-0.987,2.402-2.471,4.571-4.065,6.627
				c-0.766,0.987-1.566,1.963-2.128,3.077c-0.552,1.094-0.858,2.355-0.603,3.551c0.631,1.096,1.738,1.934,2.947,2.386
				c1.591,0.594,3.338,0.617,5.035,0.515c1.917-0.115,3.899-0.405,5.504-1.452c1.862-1.214,2.982-3.32,3.464-5.477
				c0.275-1.233,0.365-2.491,0.375-3.756c0.014-1.747,0.746-3.396,2.031-4.591c0.272-0.253,1.353-1.519,1.811-2.051
				c-0.411-3.11-1.869-5.313-1.869-5.313L359.652,363.357z"/>
		</g>
		<g>
			<path style="fill:#455A64;" d="M327.47,255.404c0,0-2.945,38.335-2.689,48.998c0.256,10.663,1.337,52.806,1.337,52.806
				c6.026,3.491,14.734,0.888,14.734,0.888c0.704-33.638,3.905-40.874,1.728-53.187c1.537-9.139,3.655-30.439,3.655-30.439
				c3.004,25.615,5.181,38.817,5.181,38.817l7.171,51.283c5.89,3.047,13.317,0,13.317,0c0-29.231,0.64-41.597-2.433-60.892
				c-0.164-29.703-3.031-50.983-3.031-50.983L327.47,255.404z"/>
			<path style="opacity:0.2;" d="M334.592,265.304c2.056,4.994,8.501,4.994,8.501,4.994l1.152,5.678l-0.429,20.191
				c1.238-9.821,2.419-21.697,2.419-21.697l-0.795-6.077C340.019,268.605,336.079,266.489,334.592,265.304z"/>
		</g>
		<path style="fill:#37474F;" d="M361.162,164.695c-1.757-2.189-4.571-2.424-4.571-2.424l-23.868,2.215
			c-2.752,5.833-0.554,9.688-0.554,9.688c-0.372,8.896-0.68,14.551,3.232,16.424c2.13,1.02,5.375,1.456,8.717,1.208
			c2.794-0.207,5.656-0.89,7.995-2.124l0.127-0.067c1.746-0.921,2.985-2.568,3.421-4.493c0.392-1.735,0.687-3.489,0.82-5.263
			c0.076-1.005,0.116-2.017,0.333-3.001c0.217-0.984,0.626-1.952,1.34-2.663c0.713-0.712,1.764-1.131,2.749-0.919
			c0.174,0.037,0.332,0.113,0.493,0.185C362.076,169.508,362.276,166.083,361.162,164.695z"/>
		<path style="fill:#FFA8A7;" d="M352.421,165.376c-0.523,1.615-0.204,3.383,0.314,5c0.518,1.617,1.234,3.182,1.517,4.856
			c0.28,1.654,0.11,3.41-0.656,4.901c-0.766,1.492-2.164,2.687-3.805,3.036c-2.563,0.545-5.069-0.952-7.641-1.45
			c-2.388-0.463-5.033,0.039-7.184,1.27c-0.811,0.464-1.822-0.06-1.878-0.992c-0.305-5.12-0.301-13.142,0.457-16.912
			L352.421,165.376z"/>
		<polygon style="fill:#FFA8A7;" points="354.855,188.248 354.856,188.245 354.846,188.251 		"/>
		<path style="fill:#37474F;" d="M356.938,182.42c0,0-0.047,2.077-0.102,4.557c0.975-0.799,1.635-1.772,2.224-3.447
			C358.234,183.425,357.401,183.025,356.938,182.42z"/>
		<path style="fill:#37474F;" d="M333.951,160.739c-0.989-0.687-1.978-1.374-2.966-2.061c-0.676,1.947-0.159,4.236,1.134,5.841
			c1.293,1.605,3.224,2.608,5.23,3.079c2.006,0.471,4.096,0.447,6.15,0.28c3.005-0.244,5.985-0.788,8.881-1.622
			c1.28-0.368,2.607-0.834,3.489-1.832c1.291-1.46,1.251-3.807,0.183-5.438c-1.068-1.63-2.975-2.579-4.906-2.841
			c-1.966-0.266-3.955,0.104-5.906,0.466c-1.95,0.362-3.945,0.718-5.906,0.424s-3.919-1.359-4.763-3.154
			C332.899,156.593,333.951,160.739,333.951,160.739z"/>
		<g>
			<polygon style="fill:#F28F8F;" points="341.439,174.454 337.086,179.726 341.08,181.137 			"/>
			<path style="fill:#F28F8F;" d="M344.734,183.755c-1.121,0.345-2.241,0.689-3.362,1.034c0.345,0.781,1.443,1.268,2.265,1.042
				C344.46,185.605,344.836,184.602,344.734,183.755z"/>
			<path style="opacity:0.3;" d="M344.734,183.755c-1.121,0.345-2.241,0.689-3.362,1.034c0.345,0.781,1.443,1.268,2.265,1.042
				C344.46,185.605,344.836,184.602,344.734,183.755z"/>
			<path style="fill:#F28F8F;" d="M342.536,185.765c0.366,0.125,0.756,0.161,1.101,0.066c0.646-0.177,1.012-0.834,1.092-1.517
				c-0.444-0.067-0.911,0.009-1.299,0.237C342.985,184.813,342.666,185.264,342.536,185.765z"/>
			<path style="fill:#263238;" d="M347.36,175.611c-0.035,0.66-0.599,1.165-1.258,1.13c-0.66-0.036-1.165-0.599-1.13-1.258
				c0.036-0.66,0.599-1.165,1.258-1.13C346.89,174.388,347.395,174.951,347.36,175.611z"/>
			<path style="fill:#263238;" d="M337.357,174.685c-0.035,0.659-0.599,1.165-1.258,1.13s-1.165-0.599-1.13-1.258
				c0.035-0.66,0.599-1.165,1.258-1.13C336.887,173.463,337.393,174.026,337.357,174.685z"/>
			<path style="fill:#263238;" d="M336.451,169.871c-0.915,0.563-1.83,1.125-2.745,1.688c-0.228-0.642,0.068-1.443,0.617-1.846
				C334.873,169.311,335.908,169.46,336.451,169.871z"/>
			<path style="fill:#263238;" d="M346.682,170.277c0.849,0.658,1.699,1.315,2.548,1.972c0.295-0.614,0.087-1.442-0.416-1.901
				C348.31,169.889,347.266,169.926,346.682,170.277z"/>
		</g>
		<path style="fill:#BA68C8;" d="M366.035,196.681l-4.964-0.528l-24.32-0.169c-8.52,0-9.613,10.488-10.105,19.767
			c-0.492,9.279,1.083,27.954-1.03,40.423l10.145,6.552l2.853-3.065l4.544,4.227c15.428,0,24.516-8.559,25.678-10.038
			L366.035,196.681z"/>
		<path style="opacity:0.2;fill:#FFFFFF;" d="M366.035,196.681l-4.964-0.528l-24.32-0.169c-8.52,0-9.613,10.488-10.105,19.767
			c-0.492,9.279,1.083,27.954-1.03,40.423l10.145,6.552l2.853-3.065l4.544,4.227c15.428,0,24.516-8.559,25.678-10.038
			L366.035,196.681z"/>
		<path style="fill:#455A64;" d="M340.727,199.218c-2.272,7.237-0.845,17.329,0,21.872c5.759-7.925,11.148-15.87,12.839-18.977
			l-8.031-3.9L340.727,199.218z"/>
		<path style="fill:#FFA8A7;" d="M363.048,175.188c-0.325-0.75-0.915-1.398-1.652-1.729c-0.16-0.072-0.319-0.147-0.493-0.185
			c-0.985-0.211-2.036,0.207-2.749,0.919c-0.713,0.712-1.123,1.68-1.34,2.663c-0.217,0.984-0.258,1.996-0.333,3.001
			c-0.137,1.818-0.443,3.614-0.85,5.391c-0.431,1.882-1.693,3.47-3.401,4.37l-0.118,0.062c-2.339,1.234-5.201,1.917-7.995,2.124
			l0.012,2.371v5.647l11.281-5.578c0.811-0.473,1.317-1.329,1.337-2.268c0.027-1.283,0.058-3.697,0.087-5.001
			c0.055-2.48,0.102-4.557,0.102-4.557c0.463,0.605,1.296,1.006,2.122,1.11c0.386,0.049,0.771,0.039,1.115-0.056
			c1.078-0.298,1.955-1.134,2.481-2.121c0.526-0.987,0.732-2.116,0.794-3.232C363.503,177.126,363.443,176.102,363.048,175.188z"/>
		<path style="fill:#F28F8F;" d="M353.722,189.52c0.661-0.848,1.143-1.847,1.392-2.891c-0.622,1.263-1.615,2.323-2.883,2.991
			c-0.04,0.021-0.079,0.042-0.118,0.062c-2.339,1.234-5.201,1.917-7.995,2.124l0.011,2.045c1.608-0.17,3.205-0.448,4.724-0.992
			C350.731,192.187,352.496,191.093,353.722,189.52z"/>
		<g>
			<g>
				<path style="fill:#BA68C8;" d="M344.085,205.866l-1.984-0.472c0,0-1.466,3.725-2.419,7.749c0.245,3.204,0.694,6.058,1.045,7.947
					c1.13-1.555,2.244-3.109,3.32-4.629C343.825,213.864,343.598,209.565,344.085,205.866z"/>
				<path style="opacity:0.2;" d="M344.041,206.285c0.016-0.139,0.027-0.282,0.045-0.419l-1.984-0.472c0,0-0.043,0.109-0.112,0.293
					c0.323,0.283,0.705,0.502,1.125,0.593C343.419,206.346,343.732,206.333,344.041,206.285z"/>
			</g>
			<g>
				<path style="fill:#BA68C8;" d="M345.148,200.67l1.563-1.005l3.64,1.984c-1.596,1.462-4.293,1.7-4.293,1.7L345.148,200.67z"/>
				<path style="fill:#BA68C8;" d="M342.742,200.284l-0.476-1.066l-1.835,1.149c0.358,1.193,1.193,1.746,1.193,1.746
					L342.742,200.284z"/>
				<path style="opacity:0.2;" d="M345.148,200.67l1.563-1.005l3.64,1.984c-1.596,1.462-4.293,1.7-4.293,1.7L345.148,200.67z"/>
				<path style="opacity:0.2;" d="M342.742,200.284l-0.476-1.066l-1.835,1.149c0.358,1.193,1.193,1.746,1.193,1.746L342.742,200.284
					z"/>
				<path style="fill:#BA68C8;" d="M346.058,203.35c-0.155-0.923-0.463-1.857-0.909-2.68c-0.802-0.129-1.604-0.257-2.407-0.386
					c-0.437,0.557-0.822,1.186-1.118,1.829c-0.119,1.715,0.478,3.281,0.478,3.281c0.895,0.507,1.984,0.472,1.984,0.472
					C345.518,204.976,346.058,203.35,346.058,203.35z"/>
			</g>
		</g>
		<path style="fill:#37474F;" d="M344.305,199.824c3.82-0.066,6.152,2.976,9.645,4.016l7.122-7.688l-2.76-4.104
			c-0.551-0.819-0.707-1.513-1.542-2.037l0,0l-0.026,1.486c-0.019,0.883-1.061,1.692-1.824,2.137L344.305,199.824z"/>
		<path style="fill:#37474F;" d="M344.305,199.824c-2.124-0.66-5.294,1.995-5.294,1.995c1.109-6.142,4.463-8.559,5.283-8.559
			L344.305,199.824z"/>
		<path style="opacity:0.2;" d="M339.962,221.632l-2.616,3.507c-0.716,0.96-1.069,2.142-0.998,3.337l1.751,29.177l-3.014-28.945
			c-0.172-1.652,0.476-3.284,1.734-4.368L339.962,221.632z"/>
		<g>
			<path style="fill:#FFA8A7;" d="M378.822,255.381c-1.731-0.797-3.241-2.052-4.374-3.584l-1.71,2.992
				c-2.244-0.905-4.615-1.703-6.859-2.608c-0.549-0.222-1.121-0.447-1.713-0.413c-0.591,0.034-1.208,0.409-1.319,0.991
				c-0.116,0.609,0.332,1.171,0.777,1.603c1.171,1.135,2.54,2.067,4.026,2.739c-2.036,1.896-4.38,3.409-6.964,4.443
				c-0.8,0.32-1.626,0.598-2.354,1.061c-0.728,0.462-1.363,1.145-1.551,1.986c-0.243,1.089,0.304,2.211,1.034,3.055
				c1.642,1.898,4.226,2.83,6.735,2.797c2.509-0.033,4.945-0.949,7.092-2.249c2.147-1.299,4.039-2.974,5.899-4.659
				c2.409-2.183,4.427-4.369,6.521-7.145C382.269,256.467,380.455,256.133,378.822,255.381z"/>
			<path style="fill:#455A64;" d="M394.314,241.75c1.706-2.445,1.991-5.619,0.713-8.313c-6.785-14.298-15.4-28.719-15.4-28.719
				c-3.473-5.962-6.02-8.567-13.719-8.046c-3.01,10.246-0.27,15.784,7.217,27.515l9.03,14.124l-7.706,13.486
				c1.132,1.532,2.642,2.787,4.374,3.584c1.633,0.752,3.447,1.086,5.242,1.008c0.136-0.181,0.272-0.356,0.409-0.542L394.314,241.75z
				"/>
		</g>
	</g>
</g>
</svg>
